<svg width="20" height="17" viewBox="0 0 20 17" fill="none" xmlns="http://www.w3.org/2000/svg">
<path d="M2.91114 17H1.49401L2.49609 16.0326C3.03641 15.511 3.37382 14.8326 3.46453 14.0967C2.05459 13.2034 1.02358 12.0283 0.471684 10.6806C-0.0798229 9.33394 -0.149128 7.85151 0.271282 6.39351C0.775712 4.64406 1.95883 3.0495 3.60263 1.90351C5.38891 0.65824 7.61263 0 10.0334 0C13.083 0 15.6534 0.845807 17.4667 2.44592C19.1003 3.88748 20 5.83194 20 7.92117C20 8.93618 19.7859 9.92381 19.3637 10.8566C18.9268 11.8219 18.287 12.6814 17.4621 13.4111C15.6463 15.0175 13.0775 15.8667 10.0334 15.8667C8.90333 15.8667 7.72412 15.721 6.67132 15.4538C5.67478 16.4407 4.32441 17 2.91114 17V17ZM10.0334 1.13333C5.17936 1.13333 2.20087 3.92787 1.40228 6.69743C0.647628 9.31468 1.76007 11.7877 4.3781 13.3129L4.67062 13.4833L4.66162 13.813C4.64378 14.4656 4.48262 15.0941 4.19417 15.6623C4.89658 15.4329 5.53394 15.0169 6.03305 14.4477L6.28123 14.1646L6.64928 14.2709C7.68213 14.5691 8.88396 14.7333 10.0334 14.7333C16.0745 14.7333 18.826 11.2021 18.826 7.92117C18.826 6.15408 18.062 4.50666 16.6746 3.28244C15.0814 1.8765 12.7849 1.13333 10.0334 1.13333V1.13333Z" fill="#1B222C"/>
</svg>
