<svg width="23" height="11" viewBox="0 0 23 11" fill="none" xmlns="http://www.w3.org/2000/svg">
<path d="M22.8998 5.08432C18.7564 0.767745 14.0918 -0.811642 9.03578 0.389693C5.06721 1.33277 1.96392 3.74863 0.467284 5.10472C-0.0931867 5.61267 -0.157411 6.43133 0.317603 7.0092C0.76647 7.55486 1.57506 7.73086 2.23819 7.42804L2.7225 7.20714C5.66488 9.72634 8.72167 11 11.8218 11C12.0269 11 12.2329 10.9945 12.4384 10.9832C17.4949 10.7081 20.7841 7.17047 20.9216 7.02C21.058 6.8709 21.0445 6.64229 20.892 6.50913C20.74 6.37666 20.5049 6.38883 20.3689 6.53809C20.3373 6.57271 17.1498 10.0021 12.3974 10.2607C9.22827 10.4324 6.07462 9.17109 3.03344 6.50965C2.92342 6.41265 2.76356 6.39003 2.62967 6.45121L1.92496 6.77236C1.56647 6.93517 1.13304 6.8452 0.895094 6.55626C0.662764 6.27332 0.694701 5.88601 0.971777 5.63512C3.66182 3.19732 13.1547 -4.01052 22.3595 5.57925C22.4992 5.72527 22.7341 5.73263 22.8829 5.59571C23.0321 5.45912 23.0398 5.23016 22.8998 5.08432Z" fill="#1B222C"/>
<path d="M20.05 5.87471C20.1434 5.87471 20.2371 5.84043 20.309 5.77154C20.4552 5.63187 20.4578 5.40291 20.3148 5.25998C18.2914 3.23965 16.2392 2.17816 14.2853 1.73207C12.4554 1.23903 10.5489 1.32146 8.59216 1.97662C5.14704 2.99784 2.7718 5.21011 2.72617 5.25382C2.57948 5.39349 2.57667 5.6221 2.71968 5.7652C2.86322 5.90898 3.09766 5.91087 3.24348 5.77205C3.26138 5.75474 4.78556 4.32634 7.11395 3.2777C6.94602 3.76389 6.85021 4.27355 6.85021 4.78939C6.85021 7.40165 9.02664 9.52704 11.7016 9.52704C14.3765 9.52704 16.5528 7.40165 16.5528 4.78939C16.5528 4.24391 16.4531 3.70339 16.264 3.19132C17.4849 3.78891 18.6608 4.64321 19.7852 5.76588C19.8579 5.83837 19.9539 5.87471 20.05 5.87471ZM11.7016 8.7346C9.47428 8.7346 7.66214 6.96465 7.66214 4.78939C7.66214 4.17073 7.81235 3.55772 8.09767 3.00778C8.93908 2.66058 9.76978 2.42939 10.5884 2.30857C10.1492 2.49794 9.76785 2.79116 9.48253 3.1615C9.99228 3.16356 10.405 3.56732 10.405 4.06568C10.405 4.56523 9.99035 4.97019 9.47884 4.97019C9.2695 4.97019 9.07858 4.89976 8.92346 4.78545C8.92346 4.78665 8.92328 4.78802 8.92328 4.78922C8.92328 6.28789 10.1671 7.50259 11.7016 7.50259C13.236 7.50259 14.4799 6.28789 14.4799 4.78922C14.4799 3.61925 13.7203 2.62527 12.6576 2.24431C13.5395 2.32485 14.403 2.54439 15.2455 2.90341C15.57 3.48335 15.7411 4.13268 15.7411 4.78922C15.7411 6.96465 13.9291 8.7346 11.7016 8.7346Z" fill="#1B222C"/>
</svg>
