<svg width="30" height="30" viewBox="0 0 30 30" fill="none" xmlns="http://www.w3.org/2000/svg">
<path d="M17.4193 29.8047C17.2943 29.8251 17.1689 29.8438 17.043 29.861C17.1689 29.8438 17.2943 29.8251 17.4193 29.8047Z" fill="#1B222C"/>
<path d="M17.7183 29.7539C17.6585 29.7649 17.5988 29.775 17.5391 29.7853C17.5988 29.775 17.6585 29.7649 17.7183 29.7539Z" fill="#1B222C"/>
<path d="M16.7067 29.9023C16.5604 29.9188 16.4133 29.9335 16.2656 29.9458C16.4133 29.9335 16.5604 29.9188 16.7067 29.9023Z" fill="#1B222C"/>
<path d="M16.9947 29.8672C16.9244 29.8766 16.8537 29.8853 16.7832 29.8935C16.8537 29.8853 16.9244 29.8766 16.9947 29.8672Z" fill="#1B222C"/>
<path d="M18.1271 29.6719C18.0745 29.6831 18.0216 29.6943 17.9688 29.7051C18.0216 29.6943 18.0745 29.6831 18.1271 29.6719Z" fill="#1B222C"/>
<path d="M19.1394 29.4199C19.0969 29.4321 19.0543 29.4435 19.0117 29.4554C19.0543 29.4435 19.0969 29.4321 19.1394 29.4199Z" fill="#1B222C"/>
<path d="M18.8345 29.5039C18.7882 29.516 18.7418 29.5284 18.6953 29.5401C18.7418 29.5284 18.7882 29.5163 18.8345 29.5039Z" fill="#1B222C"/>
<path d="M18.433 29.6055C18.384 29.6169 18.3346 29.6277 18.2852 29.6387C18.3346 29.6277 18.384 29.6169 18.433 29.6055Z" fill="#1B222C"/>
<path d="M16.2606 29.9473C16.1816 29.9539 16.1026 29.9599 16.0234 29.9651C16.1026 29.9599 16.1816 29.9539 16.2606 29.9473Z" fill="#1B222C"/>
<path d="M30 15C30 6.717 23.283 0 15 0C6.717 0 0 6.717 0 15C0 23.283 6.717 30 15 30C15.0881 30 15.1758 29.9982 15.2637 29.9966V18.3197H12.041V14.564H15.2637V11.8002C15.2637 8.59497 17.2204 6.85043 20.0796 6.85043C21.4487 6.85043 22.6257 6.95251 22.9688 6.99806V10.348H20.9972C19.4417 10.348 19.1405 11.0873 19.1405 12.1719V14.564H22.8598L22.375 18.3197H19.1405V29.4205C25.4102 27.6231 30 21.8468 30 15Z" fill="#1B222C"/>
<path d="M15.9916 29.9668C15.8355 29.9769 15.6787 29.9849 15.5215 29.9901C15.6787 29.9849 15.8355 29.9769 15.9916 29.9668Z" fill="#1B222C"/>
<path d="M15.5127 29.9902C15.4298 29.993 15.3468 29.995 15.2637 29.9964C15.3468 29.995 15.4298 29.993 15.5127 29.9902Z" fill="#1B222C"/>
</svg>
