<svg width="20" height="20" viewBox="0 0 20 20" fill="none" xmlns="http://www.w3.org/2000/svg">
<path d="M19.3998 13.5968C19.8214 13.074 20.0236 12.5136 19.9978 11.9364C19.972 11.3007 19.6794 10.803 19.4385 10.4977C19.7181 9.82016 19.8257 8.75366 18.8921 7.92555C18.208 7.31911 17.0463 7.04726 15.4372 7.12254C14.3057 7.17273 13.3591 7.37767 13.3204 7.38603H13.3161C13.101 7.42367 12.8729 7.46968 12.6406 7.51987C12.6234 7.2522 12.6707 6.5872 13.1784 5.08992C13.7808 3.30824 13.7463 1.94479 13.0666 1.03304C12.3523 0.0752824 11.2122 0 10.8766 0C10.5539 0 10.2571 0.129653 10.0462 0.368047C9.56866 0.90757 9.62459 1.90297 9.68482 2.36303C9.1169 3.84358 7.52499 7.47386 6.17832 8.48181C6.15251 8.49854 6.131 8.51945 6.10948 8.54036C5.71366 8.94605 5.44691 9.38519 5.2662 9.76997C5.01236 9.63614 4.72409 9.56085 4.41432 9.56085H1.78982C0.800257 9.56085 0 10.343 0 11.3007V18.097C0 19.059 0.804559 19.8369 1.78982 19.8369H4.41432C4.79724 19.8369 5.15434 19.7198 5.44691 19.519L6.45798 19.6361C6.61287 19.657 9.36644 19.9958 12.1932 19.9414C12.7051 19.9791 13.187 20 13.6345 20C14.4046 20 15.0758 19.9414 15.6351 19.8243C16.9517 19.5525 17.8509 19.0088 18.3069 18.21C18.6554 17.5993 18.6554 16.9929 18.5995 16.6081C19.4557 15.8553 19.6063 15.023 19.5762 14.4375C19.559 14.0987 19.4815 13.8101 19.3998 13.5968ZM1.78982 18.7077C1.44132 18.7077 1.16166 18.4316 1.16166 18.097V11.2965C1.16166 10.9578 1.44562 10.6859 1.78982 10.6859H4.41432C4.76282 10.6859 5.04248 10.9619 5.04248 11.2965V18.0928C5.04248 18.4316 4.75851 18.7035 4.41432 18.7035H1.78982V18.7077ZM18.2983 13.1075C18.1176 13.2915 18.0832 13.5717 18.2209 13.7892C18.2209 13.7934 18.3973 14.0862 18.4188 14.4877C18.4489 15.0355 18.1779 15.5207 17.6099 15.9348C17.4077 16.0853 17.326 16.3446 17.412 16.5788C17.412 16.583 17.597 17.1351 17.2959 17.6579C17.0076 18.1598 16.3665 18.5194 15.3942 18.7202C14.6154 18.8833 13.557 18.9126 12.2577 18.8122C12.2405 18.8122 12.219 18.8122 12.1975 18.8122C9.43098 18.8708 6.63438 18.5194 6.60427 18.5153H6.59996L6.16542 18.4651C6.19123 18.348 6.20414 18.2225 6.20414 18.097V11.2965C6.20414 11.1167 6.17402 10.941 6.12239 10.7779C6.19984 10.4977 6.41496 9.87453 6.92265 9.34337C8.85445 7.85445 10.7432 2.83145 10.825 2.61397C10.8594 2.52614 10.868 2.42995 10.8508 2.33375C10.7776 1.86533 10.8035 1.29235 10.9067 1.12087C11.1348 1.12505 11.75 1.18779 12.12 1.68549C12.5589 2.2752 12.5417 3.32915 12.0684 4.72606C11.3456 6.85487 11.2853 7.97574 11.8576 8.46926C12.1415 8.71602 12.5201 8.72857 12.7955 8.63237C13.0579 8.57382 13.3075 8.52363 13.5441 8.48599C13.5613 8.48181 13.5828 8.47762 13.6001 8.47344C14.9209 8.19322 17.2873 8.02175 18.109 8.74948C18.806 9.36846 18.3112 10.1882 18.2553 10.276C18.0961 10.5102 18.1434 10.8156 18.3586 11.0038C18.3629 11.0079 18.8146 11.422 18.8361 11.9783C18.8534 12.3505 18.6727 12.7311 18.2983 13.1075Z" fill="#1B222C"/>
</svg>
